<?xml version="1.0" encoding="UTF-8"?><svg xmlns="http://www.w3.org/2000/svg" viewBox="0 0 120.15 60.07"><g id="a"/><g id="b"><g id="c"><path d="M90.12,0H30.04c-4.95,0-9.83,1.22-14.19,3.56-4.36,2.34-8.08,5.72-10.82,9.85C2.28,17.53,.6,22.27,.13,27.2c-.47,4.93,.29,9.9,2.21,14.47,1.92,4.57,4.93,8.59,8.78,11.71,3.85,3.12,8.41,5.24,13.27,6.17,4.86,.93,9.88,.64,14.61-.84,4.73-1.48,9.01-4.1,12.48-7.64h17.18c3.47,3.54,7.75,6.16,12.48,7.64,4.73,1.48,9.74,1.77,14.61,.84,4.86-.93,9.42-3.05,13.27-6.16,3.85-3.12,6.86-7.14,8.78-11.7,1.92-4.57,2.68-9.53,2.21-14.46-.47-4.93-2.14-9.67-4.88-13.79-2.74-4.12-6.46-7.51-10.82-9.85C99.95,1.23,95.07,0,90.12,0ZM46.56,32.29c0,.6-.24,1.17-.66,1.59-.42,.42-1,.66-1.59,.66h-9.76v9.76c0,.6-.24,1.17-.66,1.59-.42,.42-1,.66-1.59,.66h-4.51c-.6,0-1.17-.24-1.59-.66-.42-.42-.66-1-.66-1.59v-9.76H15.77c-.6,0-1.17-.24-1.59-.66-.42-.42-.66-1-.66-1.59v-4.51c0-.6,.24-1.17,.66-1.59,.42-.42,1-.66,1.59-.66h9.76V15.77c0-.6,.24-1.17,.66-1.59,.42-.42,1-.66,1.59-.66h4.51c.6,0,1.17,.24,1.59,.66,.42,.42,.66,1,.66,1.59v9.76h9.76c.6,0,1.17,.24,1.59,.66,.42,.42,.66,1,.66,1.59v4.51Zm40.55,14.27c-1.49,0-2.94-.44-4.17-1.27-1.23-.83-2.2-2-2.77-3.37-.57-1.37-.72-2.88-.43-4.34,.29-1.46,1-2.79,2.05-3.84,1.05-1.05,2.39-1.77,3.84-2.06,1.46-.29,2.97-.14,4.34,.43,1.37,.57,2.54,1.53,3.37,2.77s1.27,2.69,1.27,4.17c0,1.99-.79,3.9-2.2,5.31-1.41,1.41-3.32,2.2-5.31,2.2Zm12.01-18.02c-1.49,0-2.94-.44-4.17-1.27-1.23-.83-2.2-2-2.77-3.37-.57-1.37-.72-2.88-.43-4.34,.29-1.46,1-2.79,2.05-3.84,1.05-1.05,2.39-1.77,3.84-2.06,1.46-.29,2.97-.14,4.34,.43s2.54,1.53,3.37,2.77c.83,1.23,1.27,2.69,1.27,4.17,0,1.99-.79,3.9-2.2,5.31-1.41,1.41-3.32,2.2-5.31,2.2Z"/></g></g></svg>