<?xml version="1.0" encoding="UTF-8"?><svg xmlns="http://www.w3.org/2000/svg" xmlns:xlink="http://www.w3.org/1999/xlink" viewBox="0 0 83.65 86.54"><defs><style>.e{fill:none;}.f{clip-path:url(#d);}.g{fill-rule:evenodd;}</style><clipPath id="d"><rect class="e" width="83.65" height="86.54"/></clipPath></defs><g id="a"/><g id="b"><g id="c"><g class="f"><path class="g" d="M79.82,29.53L48.46,2.49C46.59,.88,44.22,0,41.78,0s-4.82,.88-6.68,2.49L3.73,29.53c-1.67,1.43-2.87,3.35-3.44,5.5-.56,2.15-.46,4.42,.3,6.51,.83,2.38,2.45,4.39,4.58,5.68v28.5c0,2.87,1.12,5.62,3.12,7.65,2,2.03,4.71,3.17,7.53,3.17h52.24c2.82,0,5.53-1.14,7.53-3.17,2-2.03,3.12-4.78,3.12-7.65v-28.5c2.13-1.29,3.75-3.3,4.58-5.68,.72-2.12,.77-4.41,.15-6.56-.62-2.15-1.88-4.05-3.61-5.44Zm-11.87,8.33v37.86h-10.65v-27.04H25.93v27.04H15.28V37.86h-5.33L41.32,10.82l31.31,27.04h-4.69Z"/></g></g></g></svg>