<?xml version="1.0" encoding="UTF-8"?><svg xmlns="http://www.w3.org/2000/svg" viewBox="0 0 70.56 80.64"><defs><style>.e{fill:#fff;fill-rule:evenodd;}</style></defs><g id="a"/><g id="b"><g id="c"><g id="d"><path class="e" d="M35.28,0C15.83,0,0,15.83,0,35.28c0,31.66,30.25,44.13,31.54,44.64,1.2,.48,2.47,.72,3.74,.72s2.54-.24,3.74-.72c1.29-.51,31.54-12.98,31.54-44.64C70.56,15.83,54.74,0,35.28,0Zm0,70.56S10.08,60.48,10.08,35.28c0-13.92,11.28-25.2,25.2-25.2s25.2,11.28,25.2,25.2c0,25.2-25.2,35.28-25.2,35.28Zm0-45.36c-5.57,0-10.08,4.51-10.08,10.08s4.51,10.08,10.08,10.08,10.08-4.51,10.08-10.08-4.51-10.08-10.08-10.08Z"/></g></g></g></svg>