<?xml version="1.0" encoding="UTF-8"?><svg id="Layer_2" xmlns="http://www.w3.org/2000/svg" xmlns:xlink="http://www.w3.org/1999/xlink" viewBox="0 0 157.2 84.49"><defs><style>.cls-1{fill:url(#linear-gradient);}.cls-2{fill-rule:evenodd;}.cls-2,.cls-3{fill:#fff;}.cls-3{font-family:SourceSansPro-SemiBold, 'Source Sans Pro';font-size:38.68px;}</style><linearGradient id="linear-gradient" x1="110.28" y1="86.37" x2="46.92" y2="-23.37" gradientTransform="matrix(1, 0, 0, 1, 0, 0)" gradientUnits="userSpaceOnUse"><stop offset="0" stop-color="#262626"/><stop offset="1" stop-color="#555"/></linearGradient></defs><g id="Layer_1-2"><path class="cls-1" d="M157.2,8.81V54.19c0,4.87-3.94,8.81-8.81,8.81H45.57l-7.22,12.5-4.17,7.24c-1.35,2.34-4.73,2.34-6.08,0l-4.18-7.24-7.22-12.5h-7.89c-4.86,0-8.81-3.94-8.81-8.81V8.81C0,3.95,3.95,0,8.81,0H148.39c4.87,0,8.81,3.95,8.81,8.81Z"/><g id="location_1"><path class="cls-2" d="M31.67,13.8c-8.55,0-15.51,6.96-15.51,15.51,0,13.91,13.29,19.39,13.86,19.62,.53,.21,1.09,.32,1.65,.32s1.12-.11,1.65-.32c.57-.23,13.86-5.7,13.86-19.62,0-8.55-6.96-15.51-15.51-15.51Zm0,31.01s-11.08-4.43-11.08-15.51c0-6.12,4.96-11.08,11.08-11.08s11.08,4.96,11.08,11.08c0,11.08-11.08,15.51-11.08,15.51Zm0-19.94c-2.45,0-4.43,1.98-4.43,4.43s1.98,4.43,4.43,4.43,4.43-1.98,4.43-4.43-1.98-4.43-4.43-4.43Z"/></g><text class="cls-3" transform="translate(65.09 44.3)"><tspan x="0" y="0">Rud</tspan></text></g></svg>