<?xml version="1.0" encoding="UTF-8"?><svg id="Layer_2" xmlns="http://www.w3.org/2000/svg" xmlns:xlink="http://www.w3.org/1999/xlink" viewBox="0 0 207.24 84.49"><defs><style>.cls-1{fill:url(#linear-gradient);}.cls-2{letter-spacing:-.02em;}.cls-3{fill-rule:evenodd;}.cls-3,.cls-4{fill:#fff;}.cls-5{letter-spacing:0em;}.cls-4{font-family:SourceSansPro-SemiBold, 'Source Sans Pro';font-size:38.68px;}</style><linearGradient id="linear-gradient" x1="141.55" y1="97.2" x2="65.69" y2="-34.2" gradientTransform="matrix(1, 0, 0, 1, 0, 0)" gradientUnits="userSpaceOnUse"><stop offset="0" stop-color="#262626"/><stop offset="1" stop-color="#555"/></linearGradient></defs><g id="Layer_1-2"><path class="cls-1" d="M207.24,8.81V54.19c0,4.87-3.94,8.81-8.81,8.81H45.57l-7.22,12.5-4.18,7.24c-1.35,2.34-4.73,2.34-6.08,0l-4.17-7.24-7.22-12.5h-7.89c-4.87,0-8.81-3.94-8.81-8.81V8.81C0,3.94,3.94,0,8.81,0H198.43c4.87,0,8.81,3.94,8.81,8.81Z"/><g id="location_1"><path class="cls-3" d="M31.66,13.8c-8.55,0-15.51,6.96-15.51,15.51,0,13.91,13.29,19.39,13.86,19.62,.53,.21,1.09,.32,1.65,.32s1.12-.11,1.65-.32c.57-.23,13.86-5.7,13.86-19.62,0-8.55-6.96-15.51-15.51-15.51Zm0,31.01s-11.08-4.43-11.08-15.51c0-6.12,4.96-11.08,11.08-11.08s11.08,4.96,11.08,11.08c0,11.08-11.08,15.51-11.08,15.51Zm0-19.94c-2.45,0-4.43,1.98-4.43,4.43s1.98,4.43,4.43,4.43,4.43-1.98,4.43-4.43-1.98-4.43-4.43-4.43Z"/></g><text class="cls-4" transform="translate(65.09 44.29)"><tspan x="0" y="0">Bo</tspan><tspan class="cls-5" x="44.33" y="0">r</tspan><tspan class="cls-2" x="58.37" y="0">g</tspan><tspan x="77.87" y="0">en</tspan></text></g></svg>