<?xml version="1.0" encoding="UTF-8"?><svg xmlns="http://www.w3.org/2000/svg" xmlns:xlink="http://www.w3.org/1999/xlink" viewBox="0 0 86.54 86.54"><defs><style>.e{fill:none;}.f{clip-path:url(#d);}.g{fill-rule:evenodd;}</style><clipPath id="d"><rect class="e" width="86.54" height="86.54"/></clipPath></defs><g id="a"/><g id="b"><g id="c"><g class="f"><path class="g" d="M84,.76c-.83-.45-1.76-.68-2.71-.68s-1.87,.23-2.7,.68l-19.53,9.89L29.15,.71h-2.05c-.41-.05-.83-.05-1.24,0-.13-.03-.26-.03-.38,0-.3,.08-.59,.18-.87,.33h-.54L3.03,11.57c-.88,.45-1.63,1.13-2.15,1.97-.52,.84-.81,1.81-.82,2.81V81.27c0,.92,.23,1.83,.68,2.64,.44,.81,1.09,1.49,1.87,1.98,.88,.49,1.86,.75,2.87,.76,.84-.02,1.66-.2,2.43-.55l19.63-9.83,30.29,10.1c1.34,.52,2.82,.52,4.17,0l21.63-10.86c.92-.48,1.69-1.21,2.21-2.12,.52-.91,.77-1.94,.71-2.99V5.22c-.03-.9-.27-1.77-.72-2.55-.44-.78-1.07-1.43-1.83-1.91ZM21.63,66.93l-10.82,5.43V19.56l10.82-5.43v52.8Zm32.45,6.68l-21.63-7.23V12.87l21.63,7.23v53.51Zm21.63-6.68l-10.82,5.43V19.56l10.82-5.43v52.8Z"/></g></g></g></svg>