<?xml version="1.0" encoding="UTF-8"?><svg id="Layer_2" xmlns="http://www.w3.org/2000/svg" xmlns:xlink="http://www.w3.org/1999/xlink" viewBox="0 0 64.12 86.59"><defs><style>.cls-1{fill:url(#linear-gradient);}.cls-2{fill:#fff;fill-rule:evenodd;}</style><linearGradient id="linear-gradient" x1="56.04" y1="73.6" x2="11.97" y2="-2.73" gradientTransform="matrix(1, 0, 0, 1, 0, 0)" gradientUnits="userSpaceOnUse"><stop offset="0" stop-color="#262626"/><stop offset="1" stop-color="#555"/></linearGradient></defs><g id="Layer_1-2"><path class="cls-1" d="M64.12,9.89V54.23c0,5.46-4.43,9.89-9.89,9.89h-6.42l-7.69,13.33-4.06,7.03c-1.61,2.8-5.65,2.8-7.26,0l-4.06-7.03-7.69-13.33h-7.14c-5.46,0-9.89-4.43-9.89-9.89V9.89C0,4.43,4.43,0,9.89,0H54.23c5.46,0,9.89,4.43,9.89,9.89Z"/><g id="location_1"><path class="cls-2" d="M32.3,13.91c-8.55,0-15.51,6.96-15.51,15.51,0,13.91,13.29,19.39,13.86,19.62,.53,.21,1.09,.32,1.65,.32s1.12-.11,1.65-.32c.57-.23,13.86-5.7,13.86-19.62,0-8.55-6.96-15.51-15.51-15.51Zm0,31.01s-11.08-4.43-11.08-15.51c0-6.12,4.96-11.08,11.08-11.08s11.08,4.96,11.08,11.08c0,11.08-11.08,15.51-11.08,15.51Zm0-19.94c-2.45,0-4.43,1.98-4.43,4.43s1.98,4.43,4.43,4.43,4.43-1.98,4.43-4.43-1.98-4.43-4.43-4.43Z"/></g></g></svg>