<?xml version="1.0" encoding="UTF-8"?><svg xmlns="http://www.w3.org/2000/svg" viewBox="0 0 86.16 86.42"><defs><style>.d{fill-rule:evenodd;}</style></defs><g id="a"/><g id="b"><g id="c"><path class="d" d="M43.16,0c-9.39,.02-18.52,3.1-26.01,8.77C9.66,14.44,4.23,22.39,1.65,31.42-.92,40.46-.48,50.08,2.9,58.84c3.38,8.76,9.52,16.19,17.49,21.15,6.82,4.2,14.68,6.43,22.69,6.43s15.87-2.22,22.69-6.43c7.96-4.96,14.09-12.37,17.48-21.12,3.38-8.75,3.83-18.35,1.28-27.38-2.55-9.02-7.96-16.98-15.42-22.66C61.64,3.16,52.54,.06,43.16,0Zm0,75.72c-6,.02-11.89-1.64-16.98-4.81,4.81-3.88,10.8-6,16.98-6s12.17,2.12,16.98,6c-5.1,3.17-10.98,4.84-16.98,4.81Zm-10.82-32.45c0-2.14,.63-4.23,1.82-6.01,1.19-1.78,2.88-3.17,4.85-3.99,1.98-.82,4.15-1.03,6.25-.61,2.1,.42,4.02,1.45,5.54,2.96,1.51,1.51,2.54,3.44,2.96,5.54,.42,2.1,.2,4.27-.61,6.25-.82,1.98-2.21,3.67-3.99,4.85-1.78,1.19-3.87,1.82-6.01,1.82-2.87,0-5.62-1.14-7.65-3.17-2.03-2.03-3.17-4.78-3.17-7.65Zm35.86,20.5c-.39-.47-.83-.91-1.3-1.3-2.39-1.88-5.01-3.46-7.79-4.7,2.84-3.1,4.71-6.95,5.39-11.09,.68-4.14,.15-8.39-1.55-12.24-1.69-3.84-4.46-7.11-7.98-9.4-3.52-2.29-7.62-3.51-11.82-3.51s-8.3,1.22-11.82,3.51c-3.52,2.3-6.29,5.56-7.98,9.4-1.69,3.84-2.23,8.09-1.55,12.24,.68,4.14,2.56,8,5.39,11.09-2.78,1.24-5.4,2.82-7.79,4.7-.47,.39-.91,.83-1.3,1.3-4.78-5.76-7.4-13.01-7.41-20.5,0-8.61,3.42-16.86,9.5-22.95,6.09-6.09,14.34-9.5,22.95-9.5s16.86,3.42,22.95,9.5c6.09,6.09,9.5,14.34,9.5,22.95,0,7.49-2.63,14.74-7.41,20.5Z"/></g></g></svg>