<?xml version="1.0" encoding="UTF-8"?><svg xmlns="http://www.w3.org/2000/svg" viewBox="0 0 320.58 315.03"><g id="a"/><g id="b"><g id="c"><g id="d"><g><path d="M320.58,315.03c-2.96-1.1-6.09-1.88-8.84-3.36-9.83-5.29-19.7-1.07-29.58-.54-20.82,1.11-41.66,2.24-61.02-8.07-4.08-2.17-6.47-5.03-6.28-9.82,.18-4.64,2.85-7.47,6.89-8.82,1.85-.62,4.53-.7,6.12,.21,12.78,7.3,26.78,7.28,40.78,7.13,10.31-.11,20.44-1.09,30.63-3.55,4.78-1.15,10.68,2.46,16.09,3.84,1.71,.44,3.47,.66,5.21,.98v22.01Z"/><path d="M320.58,92.97c-5.36-2.17-10.68-4.46-16.1-6.48-4.15-1.55-8.25-3.05-9.46-7.93-1.96-7.94,4.4-13.96,12.8-11.9,4.34,1.07,8.51,2.85,12.76,4.3v22.01Z"/><path d="M294.36,144.87c-.44,45.39-18.6,82.5-53.44,111.25-23.78,19.62-51.6,29.66-82.27,32.69-13.83,1.36-27.25-.15-40.6-2.89-6.31-1.3-12.15-.78-18.11,.97-21.54,6.32-43.08,12.62-64.62,18.92-1.27,.37-2.58,.65-3.89,.83-4.49,.62-8.97,.58-11.42-4.01-2.42-4.53-1.43-8.82,1.58-13.04,8.12-11.37,15.89-22.99,24.01-34.35,2.05-2.86,2.08-4.43-.63-6.99-20.19-19.13-33.95-42.28-40.63-69.22C-3.97,145.51-.31,113.02,15.09,81.99,32.43,47.07,59.88,23.13,96.06,9.52,122.79-.54,150.5-2.89,178.52,3.73c54.51,12.89,91.43,45.64,109.6,98.79,4.64,13.58,6.93,27.78,6.24,42.35ZM53.67,278.66c2.81-.19,4.3-.05,5.65-.43,12.47-3.55,24.9-7.26,37.38-10.77,6.83-1.92,13.4-3.81,20.95-1.71,8.08,2.25,16.68,3.15,25.11,3.54,20.61,.96,40.28-3.41,59.06-11.95,20.83-9.47,37.84-23.66,50.8-42.32,17.88-25.73,25.17-54.34,21.34-85.68-2.61-21.38-10.49-40.68-23.31-57.68-19.14-25.36-44.46-41.15-75.65-48.5-27.53-6.49-53.81-3.18-79.04,7.73-33.33,14.42-56.64,39.02-68.95,73.59-8.35,23.43-9.31,47.13-3,71.14,6.78,25.78,20.69,47.01,41.03,64.13,7.7,6.48,8.1,10.46,2.33,18.7-4.43,6.33-8.68,12.79-13.7,20.21Z"/><path d="M132.72,174.41c0-3,.23-6.02-.04-9-1.25-13.67,9.32-21.4,21.72-21.96,16.58-.74,29.23-10.68,33.36-26.6,3.76-14.51-4.66-31.77-18.44-37.77-22.94-9.99-45.8,2.78-49.49,27.53-.48,3.2-1.11,6.72-2.85,9.29-2.24,3.31-6.1,4.83-10.17,3.02-4.49-1.99-7.28-5.65-6.93-10.62,1.19-17.13,8.03-31.36,22.06-41.85,9.57-7.15,20.55-10.98,32.11-10.76,17.59,.33,32.79,7.24,43.57,21.69,19.12,25.61,11.74,61.8-15.57,78.18-7.76,4.65-16.27,6.68-25.06,7.67-3.77,.42-4.74,2.19-4.69,5.51,.08,5.83,.09,11.67-.03,17.5-.13,6.69-4.44,11.4-10.1,11.28-5.8-.12-9.35-4.26-9.46-11.11-.06-4-.01-8-.02-12Z"/><path d="M132.75,220.82c0-5.58,4.13-9.58,9.81-9.48,5.18,.1,9.51,4.41,9.57,9.51,.06,5.27-4.4,9.68-9.85,9.74-5.6,.07-9.52-3.96-9.53-9.77Z"/></g></g></g></g></svg>