<?xml version="1.0" encoding="UTF-8"?><svg xmlns="http://www.w3.org/2000/svg" xmlns:xlink="http://www.w3.org/1999/xlink" viewBox="0 0 390 390"><defs><style>.l{fill:url(#e);}.m{fill:url(#d);}.n{fill:url(#g);}.o{fill:url(#f);}.p{opacity:.35;}.q{fill:#ededed;opacity:.5;}</style><linearGradient id="d" x1="59.52" y1="23.07" x2="158.22" y2="194.02" gradientTransform="matrix(1, 0, 0, 1, 0, 0)" gradientUnits="userSpaceOnUse"><stop offset="0" stop-color="#49a33a"/><stop offset="1" stop-color="#346d75"/></linearGradient><linearGradient id="e" x1="232.52" y1="23.07" x2="331.22" y2="194.02" gradientTransform="matrix(1, 0, 0, 1, 0, 0)" gradientUnits="userSpaceOnUse"><stop offset="0" stop-color="#fed157"/><stop offset="1" stop-color="#f6a358"/></linearGradient><linearGradient id="f" x1="232.52" y1="196.06" x2="331.22" y2="367.02" gradientTransform="matrix(1, 0, 0, 1, 0, 0)" gradientUnits="userSpaceOnUse"><stop offset="0" stop-color="#91e8f6"/><stop offset="1" stop-color="#59acf5"/></linearGradient><linearGradient id="g" x1="59.52" y1="196.07" x2="158.22" y2="367.02" gradientTransform="matrix(1, 0, 0, 1, 0, 0)" gradientUnits="userSpaceOnUse"><stop offset="0" stop-color="#f4968e"/><stop offset="1" stop-color="#f58a5b"/></linearGradient></defs><g id="a"/><g id="b"><g id="c"><rect class="q" width="390" height="390" rx="46.35" ry="46.35"/><path class="m" d="M186.37,50.62v115.84c0,10.81-8.77,19.58-19.58,19.58H50.95c-10.81,0-19.58-8.77-19.58-19.58V50.62c0-10.81,8.77-19.58,19.58-19.58h115.84c9.01,0,16.61,6.1,18.88,14.39h0c.46,1.66,.7,3.39,.7,5.19Z"/><rect class="l" x="204.37" y="31.04" width="155" height="155" rx="19.58" ry="19.58"/><rect class="o" x="204.37" y="204.04" width="155" height="155" rx="19.58" ry="19.58"/><path class="n" d="M186.37,223.62v115.84c0,10.81-8.77,19.58-19.58,19.58H50.95c-10.81,0-19.58-8.77-19.58-19.58v-115.84c0-10.81,8.77-19.58,19.58-19.58h115.84c.34,0,.67,.01,1.01,.03,4.9,.24,9.33,2.3,12.63,5.52,2.67,2.58,4.6,5.92,5.44,9.67,.33,1.4,.5,2.86,.5,4.36Z"/><g id="h" class="p"><path d="M339.79,31.04h-86.01c-.09,0-.17,.04-.22,.1-.24,.28-.5,.54-.69,.85-.72,1.14-1.43,2.3-2.14,3.45-.1,.17-.02,.38,.17,.44,1.15,.36,2.34,.65,3.41,1.18,.93,.47,2.25,1.23,2.37,2.01,.16,1.14-.23,2.98-1.05,3.5-1.77,1.14-3.91,1.82-5.99,2.37-3.22,.86-5.02,2.76-5.43,6.55-.02,.19,.15,.37,.34,.34,1-.14,1.96-.4,2.85-.25,1.49,.25,3.48,.44,4.24,1.43,1.23,1.59,.19,3.37-1.44,4.47-1.19,.79-2.68,1.23-3.7,2.18-1.65,1.55-3.13,3.32-4.47,5.15-.34,.45-.14,1.79,.3,2.19,.42,.37,1.48,.1,2.23-.02,.5-.07,1.03-.63,1.43-.52,1.3,.33,3.26,.55,3.65,1.41,.5,1.08,.03,2.96-.66,4.11-.76,1.26-2.16,2.25-3.45,3.08-2.15,1.39-2.89,3.32-3.12,5.75-.2,2.14,.74,2.39,2.37,1.85,.67-.23,1.26-1.03,1.88-1.03,1.25,.01,2.89-.01,3.64,.72,.73,.72,1.02,2.52,.67,3.57-.46,1.39-1.63,2.6-2.66,3.73-2.7,2.98-3.28,6.14-1.5,10.22,.08,.2,.35,.24,.5,.08,.84-.95,1.65-1.77,2.31-2.7,.97-1.37,2.16-1.88,3.53-1.49,2.12,.6,3.13,3.04,2.32,5.08-.38,.96-.77,1.95-1.39,2.74-2.84,3.63-1.87,7.2-.14,11.33,.1,.22,.41,.24,.54,.04,.82-1.33,1.54-2.37,2.06-3.49,.92-1.96,2.45-2.51,4.36-1.97,2.15,.62,2.45,2.44,2.1,4.28-.35,1.82-1.25,3.54-1.52,5.37-.19,1.34-.09,2.94,.48,4.14,1.12,2.38,3.04,2.35,4.27,.07,.97-1.82,2.36-3.43,4.34-2.42,1.24,.64,1.92,2.6,2.55,4.09,.33,.79,.26,1.93-.03,2.77-1.43,4.22,1.32,6.66,4.17,9.43,.17,.17,.45,.08,.5-.15,.21-1.12,.47-2.23,.54-3.36,.14-1.99,.88-3.84,2.96-3.59,1.41,.16,2.84,1.57,3.9,2.74,.58,.65,.6,1.97,.58,2.99-.06,4.38,3.04,6.42,6.39,9.23,.21,.17,.52,0,.49-.27-.21-1.61-.5-2.75-.3-3.79,.27-1.47,.73-3.52,1.75-4.04,1.01-.51,3.12,.22,4.21,1.08,1,.79,1.43,2.43,1.85,3.78,.84,2.73,2.21,4.88,5.08,5.84,1.93,.64,2.55-.12,2.3-1.93-.1-.72-.62-1.51-.43-2.1,.42-1.26,.94-3.12,1.86-3.43,1.12-.37,3,.23,3.99,1.07,1.38,1.18,2.16,3.02,3.33,4.47,.76,.95,1.64,2.03,2.7,2.45,1.21,.48,2.62,.46,3.97,.58,.21,.02,.38-.17,.31-.38-.33-1.05-.81-2.12-.78-3.16,.03-1.52,.13-3.59,1.07-4.35,.87-.7,2.89-.06,4.39,.15,.42,.06,.84,.61,1.14,1.02,2.74,3.86,6.53,5.31,11.46,4.98,.24-.02,.37-.32,.21-.5-1.01-1.16-2.08-2.16-2.64-3.4-.55-1.24-1.01-3.35-.37-4.09,.82-.96,2.93-1.52,4.22-1.21,1.83,.45,3.35,2.04,5.15,2.8,1.45,.62,3.14,1.08,4.67,.96,1.61-.13,2.77-1.29,1.37-3.05-1.43-1.79-2.82-3.66-1.18-5.84,1.78-2.37,4.1-1.12,6.25-.38,.19,.06,.41,.01,1.17,.01V50.62c0-10.81-8.77-19.58-19.58-19.58Zm-20.63,54.9c-8.26-.14-15.51-6.99-15.61-14.77-.11-7.87,7.49-14.88,16.13-14.87,8.79,0,14.79,6.12,14.71,14.98-.07,8.56-6.55,14.8-15.23,14.66Z"/></g><g id="i" class="p"><g><path d="M281.77,203.81c-5.98,5.14-12,10.22-16.22,17.04-9.51,15.39-11.65,31.77-6.58,49.08,5.24,17.91,17.14,30.14,33.97,37.14,11.93,4.96,24.59,5.36,37.36,2.15,11.76-2.96,20.98-9.6,29.07-18.21v17.95c-.64,.37-1.32,.67-1.9,1.11-10.59,7.92-22.32,12.53-35.63,13.71-21.77,1.94-40.68-4.46-56.32-19.32-11.18-10.62-18.64-23.63-20.99-39.35-3.14-21.04,.86-40.06,14.33-56.82,1.12-1.4,2.02-2.98,3.02-4.48h19.88Z"/><path d="M322.81,203.81c.04,4.57,.16,9.15,.07,13.72-.02,.97-.87,2.76-1.25,2.74-1.3-.08-3.06-.43-3.74-1.35-2.37-3.23-4.36-6.73-7.13-10.04,0,2.43,0,4.87,0,7.3,0,.85,.19,1.8-.12,2.52-.31,.71-1.16,1.18-1.77,1.76-.61-.67-1.71-1.31-1.75-2.01-.24-4.88-.25-9.76-.34-14.65h6.41l5.19,8.77,.58-.32v-8.45h3.85Z"/><path d="M359.37,249.32c-.4,2.1-.71,4.22-1.25,6.28-.28,1.05-.98,2-1.49,2.99-.53-.94-1.25-1.83-1.52-2.84-.26-1-.14-2.12-.04-3.18,.28-3.04-1.28-3.41-4.24-2.6,0,2.43-.01,4.93,0,7.44,0,1.33,.09,2.56-1.87,2.59-2.05,.03-2.18-1.15-2.16-2.69,.04-3.2,.13-6.4-.04-9.59-.13-2.35,.89-2.92,3.02-2.85,3.19,.1,6.39-.02,9.59-.04v4.49Z"/><path d="M319.63,266.9c-4.56,1.12-8.8,1.03-12.7-1.72-3.25-2.3-5.53-5.2-6.61-9.11-.43-1.55-1.33-3.14-2.44-4.32-6.26-6.71-12.64-13.31-18.97-19.95-.44-.46-1.05-.87-1.27-1.42-.35-.9-.44-1.9-.64-2.86,.9-.02,1.88-.29,2.68-.01,6.65,2.29,13.26,4.68,19.89,7.04,1.31,.47,2.62,.91,3.9,1.46,3.55,1.52,7.06,2.26,11.09,1.89,7.13-.66,12.81,4.08,14.84,11.09,.48,1.65,1.41,3.33,2.57,4.59,6.46,6.96,13.09,13.77,19.59,20.7,.77,.82,1.06,2.08,1.57,3.14-1.28,.03-2.68,.44-3.81,.04-8.94-3.16-17.83-6.48-26.74-9.73-.99-.36-2.03-.58-2.95-.83Zm-4.83-6.02c4.76,.04,8.48-3.46,8.58-8.09,.1-4.73-3.72-8.55-8.52-8.52-4.76,.03-7.89,3.22-8,8.15-.12,5.12,2.98,8.42,7.95,8.46Z"/><path d="M275.67,246.12c-2.86-.63-5.69-1.43-8.59-1.83-2.41-.34-2.83-1.41-1.93-3.71,5.66,1.48,11.32,2.89,16.91,4.51,.65,.19,1.39,1.55,1.32,2.3-.07,.79-.92,1.91-1.67,2.17-2.69,.91-5.48,1.52-8.23,2.24l-.02,.91c2.53,.64,5.04,1.43,7.6,1.88,1.84,.32,2.5,1.1,2.49,2.96-.01,1.91-1.05,2.15-2.57,2.5-5.27,1.19-10.5,2.57-15.77,3.89-1.2-2.89-.32-4.23,2.44-4.71,2.67-.47,5.3-1.2,7.94-1.82l.03-1c-2.9-.7-5.84-1.28-8.68-2.16-.87-.27-2.14-1.39-2.08-2.02,.09-.95,.99-2.32,1.86-2.63,2.93-1.03,6-1.67,9.01-2.47l-.07-1.01Z"/><path d="M314.29,300.08c2.25,0,4.14-.14,5.99,.08,.63,.08,1.58,1.07,1.6,1.66,.02,.58-.96,1.68-1.53,1.7-4.12,.15-8.25,.08-12.66,.08-.38-6.66,5.7-9.43,7.97-14.8-2.09-.09-3.9,.04-5.59-.33-.95-.21-1.71-1.25-2.56-1.92,.8-.58,1.57-1.62,2.39-1.65,4.12-.17,8.26-.08,12.82-.08-.04,6.75-6.83,9.12-8.43,15.26Z"/></g></g><g id="j" class="p"><g><path d="M186.37,218.9v9.68c-.79-.52-1.53-1.2-2.4-1.52-2.93-1.08-3.64-.58-3.68,2.58-.05,4.18,0,8.37-.01,12.55-.02,4.87-.56,5.43-5.3,5.45-4.09,.01-8.17-.04-12.25,.03-2.82,.06-3.44,1.02-2.49,3.65,.55,1.51,1.74,3.03,1.64,4.48-.13,1.82-.82,4.22-2.14,5.16-1.17,.83-3.98,.64-5.23-.27-1.22-.88-1.76-3.2-1.89-4.95-.09-1.22,1.1-2.5,1.55-3.81,1.02-2.96,.13-4.23-3-4.26-4.73-.05-9.45-.11-14.18,0-2.91,.07-4.08-1.18-4.01-4.04,.1-4.17,.03-8.34,.03-12.94,5.14,2.3,9.8,2.75,13.28-2.25,2.22-3.2,2.24-6.52,.02-9.59-3.41-4.71-7.84-5.08-13.49-1.93v-12.85h16.13c.12,1.98-.22,4.15,.47,5.91,1.65,4.21,6.25,6.23,10.25,4.96,4.66-1.48,6.83-5.37,6.05-10.87h2.08c4.9,.24,9.33,2.3,12.63,5.52-.06,2.42-.12,4.84-.14,7.27-.03,4.49,.72,4.93,4.76,2.94,.29-.15,.56-.34,.82-.54,.17-.12,.33-.25,.5-.36Z"/><path d="M130.24,204.08c-.08,5.04-.17,10.07-.25,15.11-.03,1.87,.84,2.59,2.65,1.91,1.61-.6,3.19-1.27,4.79-1.89,2.51-.99,4.76-.11,5.78,2.02,.7,1.45,.64,3.83-.11,5.28-1.08,2.09-3.25,2.9-5.82,1.94-7.3-2.75-7.32-2.71-7.32,5.18,0,3.65,.24,7.33-.14,10.93-.14,1.31-1.68,3.43-2.73,3.52-4.45,.4-8.95,.17-13.89,.17,2.21-5.39,2.11-10.05-2.93-13.31-2.47-1.6-7.68-1.19-9.77,.63-4,3.49-4.06,7.7-1.71,12.65-4.85,0-9.31,.12-13.75-.11-.79-.04-2.12-1.49-2.16-2.33-.21-4.79-.1-9.58-.1-14.88,5.37,2.55,9.99,2.56,13.34-2.5,1.95-2.94,1.76-6.8-.47-9.64-3.5-4.44-7.84-4.67-13.17-1.54v-13.12h47.75Z"/><path d="M186.37,320.14q-1.31-7.37-7.8-3.5c-2.77,1.65-5.54,3.29-8.34,4.89-3.73,2.14-4.6,1.87-6.85-1.94-2.08-3.51-4.16-7.01-6.25-10.52-1.61-2.71-2.36-2.77-4.42-.32-.83,.98-1.37,2.39-2.39,2.99-1.62,.94-3.91,2.3-5.24,1.77-1.57-.62-3.36-3.09-3.32-4.71,.05-1.62,2.21-3.21,3.52-4.75,.22-.26,.8-.26,1.22-.32,6.93-.99,6.93-1.04,3.32-6.9-2.13-3.47-4.09-7.06-6.2-10.55-1.1-1.81-.85-3.4,.84-4.47,3.96-2.5,8.03-4.84,12.16-7.31,1.14,7.03,3.22,9.79,7.6,10.41,3.85,.55,7.46-1.29,9.13-4.64,2.14-4.31,1.12-7.36-4.55-13.02,3.83-2.29,7.49-4.7,11.37-6.65,.89-.45,2.72,.41,3.81,1.13,1,.66,1.6,1.94,2.37,2.95v10.96c-3.5,.83-5.01,3.4-5.32,6.63-.4,4.14,1.44,7.16,5.32,8.85v29.02Z"/><path d="M129.95,268.48c-6.12-2.58-9.85-2.06-12.86,1.48-2.45,2.88-2.61,7.07-.41,10.51,2.34,3.64,6.34,4.41,13.18,2.28,0,4.67,.11,9.22-.11,13.75-.04,.73-1.56,1.93-2.44,1.97-4.7,.2-9.42,.09-14.54,.09,2.34-5.35,2.63-10.09-2.73-13.43-3.3-2.06-6.74-1.76-9.87,.71-3.39,2.67-3.92,5.97-1.79,12.65-4.56,0-9.01,.19-13.42-.17-.83-.07-2.02-2.34-2.11-3.66-.27-4.39-.08-8.8-.13-13.21-.04-3.49-.86-3.98-4.11-2.55-.69,.3-1.34,.68-2,1.04-2.12,1.15-4.34,.79-5.47-1.03-.95-1.53-1.49-4.03-.88-5.57,.51-1.28,2.88-2.22,4.57-2.51,1.3-.22,2.83,.72,4.22,1.26,2.72,1.06,3.59,.61,3.64-2.31,.09-4.62,0-9.24,.05-13.86,.04-3.88,.66-4.48,4.53-4.5,4.41-.03,8.81-.03,13.22-.01,2.37,.01,3.17-.96,2.19-3.22-.6-1.38-1.29-2.74-1.66-4.18-.59-2.31-.57-4.89,1.9-5.86,1.63-.64,4.13-.6,5.59,.25,2.21,1.29,2.61,3.8,1.34,6.27-.24,.48-.54,.93-.75,1.42-1.86,4.19-1.11,5.32,3.52,5.33,4.62,.01,9.24,.02,13.86,0,2,0,3.42,.7,3.44,2.91,.05,4.6,.01,9.19,.01,14.15Z"/></g></g><g id="k" class="p"><g><path d="M186.37,128.4c-7.31-3.18-14.71-4.65-22.82-3.22-5.42,.96-11-.03-16.2-2.33-2.11-.94-3.58-2.2-2.73-4.71,.67-1.97,2.65-2.45,5.24-1.27,6.35,2.88,13.02,2.64,19.56,1.39,3.4-.65,6.34-.55,9.49,.73,2.38,.96,4.96,1.42,7.45,2.11v7.31Z"/><path d="M186.37,50.62v3.58c-3.62-2.05-7.24-4.11-10.88-6.13-.72-.4-1.88-.45-2.22-1.03-.64-1.09-1.47-2.79-1.03-3.6,.53-.99,2.42-1.99,3.48-1.79,2.52,.5,4.92,1.68,7.34,2.62,.89,.35,1.75,.76,2.61,1.16h0c.46,1.66,.7,3.39,.7,5.19Z"/><path d="M137.41,114.76c-8.91,3.02-17.88,3.38-27.14,1.76-2.75-.49-5.86,.5-8.69,1.25-6.33,1.66-12.56,3.73-18.91,5.33-1.58,.4-3.98,.24-5.08-.71-1.78-1.56-.42-3.57,.77-5.23,2.39-3.36,4.67-6.79,7.12-10.1,1.12-1.52,1.29-2.51-.21-4.03-10.5-10.63-15.57-23.44-14.55-38.4,.88-12.91,6.35-23.72,15.81-32.51,.52-.48,1.25-.89,1.98-1.08h10.24c-8.5,5.02-14.49,11.66-18.18,20.2-7.48,17.33-3.13,36.27,11.01,48.83,3.74,3.32,3.79,3.93,.89,8.18-1.23,1.8-2.38,3.66-3.56,5.5,.18,.23,.35,.46,.53,.7,1.75-.48,3.51-.94,5.26-1.44,3.33-.95,6.61-2.42,10-2.75,3.72-.38,7.57,.04,11.32,.53,16.8,2.21,34.44-6.55,43.09-21.31,11.74-20.03,5.42-45.48-15.86-58.44h10.18c1.14,.23,2.33,1.27,3.21,2.17,27.21,27.63,14.57,70.11-19.23,81.55Z"/><path d="M116.12,78.13c0-.84,0-1.69,0-2.53,.06-5,2.02-7.17,6.97-7.68,5.44-.56,9.72-2.8,11.59-8.27,2.17-6.35-1.8-13.33-8.45-15.06-6.72-1.75-13.7,2.83-14.86,9.76-.08,.46-.06,.93-.12,1.4-.25,1.99-1.13,3.46-3.38,3.3-2.2-.16-2.95-1.67-2.98-3.7-.09-7.2,5.64-14.57,13.1-16.81,7.29-2.19,15.28,.43,20.07,6.59,4.4,5.66,4.93,14.02,1.05,20.32-3.13,5.07-7.79,8.07-13.75,8.66-2.38,.24-3,1.3-2.87,3.44,.11,1.77,.12,3.57-.09,5.33-.22,1.79-1.06,3.24-3.25,3.13-2.13-.11-2.91-1.46-2.98-3.36-.06-1.5-.01-2.99-.01-4.49h-.03Z"/><path d="M118.62,97.76c-.81-1.13-2.08-2.16-2.33-3.4-.39-1.99,1.16-3.44,2.97-3.09,1.18,.23,2.68,1.88,2.88,3.08,.16,.99-1.38,2.26-2.17,3.41h-1.35Z"/></g></g></g></g></svg>