<?xml version="1.0" encoding="UTF-8"?><svg xmlns="http://www.w3.org/2000/svg" viewBox="0 0 15.83 15.91"><defs><style>.e{fill-rule:evenodd;}</style></defs><g id="a"/><g id="b"><g id="c"><g id="d"><path class="e" d="M9.31,7.96L15.54,1.7c.39-.39,.39-1.02,0-1.41-.39-.39-1.01-.39-1.4,0L7.91,6.55,1.69,.29C1.3-.1,.68-.1,.29,.29-.1,.68-.1,1.31,.29,1.7L6.52,7.96,.29,14.22c-.39,.39-.39,1.02,0,1.41,.19,.19,.45,.29,.7,.29s.51-.1,.7-.29l6.23-6.26,6.23,6.26c.19,.19,.45,.29,.7,.29s.51-.1,.7-.29c.39-.39,.39-1.02,0-1.41l-6.23-6.26Z"/></g></g></g></svg>