<svg xmlns="http://www.w3.org/2000/svg" viewBox="0 0 80.11 80.11"><defs><style>.cls-1{fill-rule:evenodd;}</style></defs><g id="Layer_2" data-name="Layer 2"><g id="Layer_1-2" data-name="Layer 1"><g id="no_cr"><path class="cls-1" d="M40.05,0A40.06,40.06,0,1,0,80.11,40.05,40.1,40.1,0,0,0,40.05,0Zm0,70.09a30,30,0,1,1,30-30A30,30,0,0,1,40.05,70.09Zm14.16-44.2a5,5,0,0,0-7.08,0L40.05,33,33,25.89A5,5,0,0,0,25.89,33L33,40.05l-7.08,7.08A5,5,0,0,0,33,54.21l7.08-7.08,7.08,7.08a5,5,0,0,0,7.08-7.08l-7.08-7.08L54.21,33A5,5,0,0,0,54.21,25.89Z"/></g></g></g></svg>